<?xml version="1.0" encoding="UTF-8"?>
<svg xmlns="http://www.w3.org/2000/svg" xmlns:xlink="http://www.w3.org/1999/xlink" width="854" height="480" viewBox="0 0 854 480">
<defs>
<g>
<g id="glyph-0-0">
<path d="M 3.253906 -2.378906 L 3.253906 -1.703125 C 3.253906 -1.113281 3.113281 -0.648438 2.835938 -0.304688 C 2.617188 -0.0351562 2.339844 0.0976562 2.003906 0.0976562 C 1.84375 0.0976562 1.691406 0.0664062 1.550781 0 C 1.410156 -0.0625 1.289062 -0.152344 1.1875 -0.265625 C 1.125 -0.339844 1.054688 -0.453125 0.980469 -0.613281 C 0.90625 -0.769531 0.851562 -0.914062 0.820312 -1.046875 C 0.769531 -1.234375 0.746094 -1.453125 0.746094 -1.703125 L 0.746094 -2.378906 C 0.746094 -2.96875 0.886719 -3.4375 1.164062 -3.777344 C 1.382812 -4.046875 1.660156 -4.183594 1.996094 -4.183594 C 2.15625 -4.183594 2.308594 -4.152344 2.453125 -4.085938 C 2.59375 -4.023438 2.710938 -3.933594 2.8125 -3.816406 C 2.878906 -3.746094 2.945312 -3.628906 3.019531 -3.46875 C 3.09375 -3.3125 3.148438 -3.167969 3.183594 -3.035156 C 3.230469 -2.851562 3.253906 -2.632812 3.253906 -2.378906 M 2.980469 -2.34375 C 2.980469 -2.601562 2.945312 -2.84375 2.871094 -3.066406 C 2.800781 -3.289062 2.71875 -3.464844 2.625 -3.597656 C 2.574219 -3.671875 2.503906 -3.738281 2.414062 -3.792969 C 2.292969 -3.867188 2.152344 -3.90625 2 -3.90625 C 1.691406 -3.90625 1.453125 -3.75 1.277344 -3.4375 C 1.105469 -3.125 1.019531 -2.761719 1.019531 -2.34375 L 1.019531 -1.742188 C 1.019531 -1.484375 1.054688 -1.242188 1.128906 -1.019531 C 1.199219 -0.796875 1.285156 -0.617188 1.375 -0.484375 C 1.429688 -0.410156 1.5 -0.347656 1.585938 -0.292969 C 1.707031 -0.214844 1.847656 -0.175781 2.003906 -0.175781 C 2.308594 -0.175781 2.546875 -0.332031 2.722656 -0.644531 C 2.894531 -0.960938 2.980469 -1.324219 2.980469 -1.742188 Z "/>
</g>
</g>
</defs>
<g fill="rgb(100%, 100%, 100%)" fill-opacity="1">
<use xlink:href="#glyph-0-0" x="30" y="25.549805"/>
<use xlink:href="#glyph-0-0" x="34" y="25.549805"/>
<use xlink:href="#glyph-0-0" x="38" y="25.549805"/>
<use xlink:href="#glyph-0-0" x="42" y="25.549805"/>
<use xlink:href="#glyph-0-0" x="46" y="25.549805"/>
<use xlink:href="#glyph-0-0" x="50" y="25.549805"/>
<use xlink:href="#glyph-0-0" x="54" y="25.549805"/>
<use xlink:href="#glyph-0-0" x="58" y="25.549805"/>
<use xlink:href="#glyph-0-0" x="62" y="25.549805"/>
<use xlink:href="#glyph-0-0" x="66" y="25.549805"/>
<use xlink:href="#glyph-0-0" x="70" y="25.549805"/>
<use xlink:href="#glyph-0-0" x="74" y="25.549805"/>
<use xlink:href="#glyph-0-0" x="78" y="25.549805"/>
<use xlink:href="#glyph-0-0" x="82" y="25.549805"/>
<use xlink:href="#glyph-0-0" x="86" y="25.549805"/>
<use xlink:href="#glyph-0-0" x="90" y="25.549805"/>
<use xlink:href="#glyph-0-0" x="94" y="25.549805"/>
<use xlink:href="#glyph-0-0" x="98" y="25.549805"/>
<use xlink:href="#glyph-0-0" x="102" y="25.549805"/>
<use xlink:href="#glyph-0-0" x="106" y="25.549805"/>
<use xlink:href="#glyph-0-0" x="110" y="25.549805"/>
<use xlink:href="#glyph-0-0" x="114" y="25.549805"/>
<use xlink:href="#glyph-0-0" x="118" y="25.549805"/>
<use xlink:href="#glyph-0-0" x="122" y="25.549805"/>
<use xlink:href="#glyph-0-0" x="126" y="25.549805"/>
<use xlink:href="#glyph-0-0" x="130" y="25.549805"/>
<use xlink:href="#glyph-0-0" x="134" y="25.549805"/>
<use xlink:href="#glyph-0-0" x="138" y="25.549805"/>
<use xlink:href="#glyph-0-0" x="142" y="25.549805"/>
<use xlink:href="#glyph-0-0" x="146" y="25.549805"/>
<use xlink:href="#glyph-0-0" x="150" y="25.549805"/>
<use xlink:href="#glyph-0-0" x="154" y="25.549805"/>
<use xlink:href="#glyph-0-0" x="158" y="25.549805"/>
<use xlink:href="#glyph-0-0" x="162" y="25.549805"/>
<use xlink:href="#glyph-0-0" x="166" y="25.549805"/>
<use xlink:href="#glyph-0-0" x="170" y="25.549805"/>
<use xlink:href="#glyph-0-0" x="174" y="25.549805"/>
<use xlink:href="#glyph-0-0" x="178" y="25.549805"/>
<use xlink:href="#glyph-0-0" x="182" y="25.549805"/>
<use xlink:href="#glyph-0-0" x="186" y="25.549805"/>
<use xlink:href="#glyph-0-0" x="190" y="25.549805"/>
<use xlink:href="#glyph-0-0" x="194" y="25.549805"/>
<use xlink:href="#glyph-0-0" x="198" y="25.549805"/>
<use xlink:href="#glyph-0-0" x="202" y="25.549805"/>
<use xlink:href="#glyph-0-0" x="206" y="25.549805"/>
<use xlink:href="#glyph-0-0" x="210" y="25.549805"/>
<use xlink:href="#glyph-0-0" x="214" y="25.549805"/>
<use xlink:href="#glyph-0-0" x="218" y="25.549805"/>
<use xlink:href="#glyph-0-0" x="222" y="25.549805"/>
<use xlink:href="#glyph-0-0" x="226" y="25.549805"/>
<use xlink:href="#glyph-0-0" x="230" y="25.549805"/>
<use xlink:href="#glyph-0-0" x="234" y="25.549805"/>
<use xlink:href="#glyph-0-0" x="238" y="25.549805"/>
<use xlink:href="#glyph-0-0" x="242" y="25.549805"/>
<use xlink:href="#glyph-0-0" x="246" y="25.549805"/>
<use xlink:href="#glyph-0-0" x="250" y="25.549805"/>
<use xlink:href="#glyph-0-0" x="254" y="25.549805"/>
<use xlink:href="#glyph-0-0" x="258" y="25.549805"/>
<use xlink:href="#glyph-0-0" x="262" y="25.549805"/>
<use xlink:href="#glyph-0-0" x="266" y="25.549805"/>
<use xlink:href="#glyph-0-0" x="270" y="25.549805"/>
<use xlink:href="#glyph-0-0" x="274" y="25.549805"/>
<use xlink:href="#glyph-0-0" x="278" y="25.549805"/>
<use xlink:href="#glyph-0-0" x="282" y="25.549805"/>
<use xlink:href="#glyph-0-0" x="286" y="25.549805"/>
<use xlink:href="#glyph-0-0" x="290" y="25.549805"/>
<use xlink:href="#glyph-0-0" x="294" y="25.549805"/>
<use xlink:href="#glyph-0-0" x="298" y="25.549805"/>
<use xlink:href="#glyph-0-0" x="302" y="25.549805"/>
<use xlink:href="#glyph-0-0" x="306" y="25.549805"/>
<use xlink:href="#glyph-0-0" x="310" y="25.549805"/>
<use xlink:href="#glyph-0-0" x="314" y="25.549805"/>
<use xlink:href="#glyph-0-0" x="318" y="25.549805"/>
<use xlink:href="#glyph-0-0" x="322" y="25.549805"/>
<use xlink:href="#glyph-0-0" x="326" y="25.549805"/>
<use xlink:href="#glyph-0-0" x="330" y="25.549805"/>
<use xlink:href="#glyph-0-0" x="334" y="25.549805"/>
<use xlink:href="#glyph-0-0" x="338" y="25.549805"/>
<use xlink:href="#glyph-0-0" x="342" y="25.549805"/>
<use xlink:href="#glyph-0-0" x="346" y="25.549805"/>
<use xlink:href="#glyph-0-0" x="350" y="25.549805"/>
<use xlink:href="#glyph-0-0" x="354" y="25.549805"/>
<use xlink:href="#glyph-0-0" x="358" y="25.549805"/>
<use xlink:href="#glyph-0-0" x="362" y="25.549805"/>
<use xlink:href="#glyph-0-0" x="366" y="25.549805"/>
<use xlink:href="#glyph-0-0" x="370" y="25.549805"/>
<use xlink:href="#glyph-0-0" x="374" y="25.549805"/>
<use xlink:href="#glyph-0-0" x="378" y="25.549805"/>
<use xlink:href="#glyph-0-0" x="382" y="25.549805"/>
<use xlink:href="#glyph-0-0" x="386" y="25.549805"/>
<use xlink:href="#glyph-0-0" x="390" y="25.549805"/>
<use xlink:href="#glyph-0-0" x="394" y="25.549805"/>
<use xlink:href="#glyph-0-0" x="398" y="25.549805"/>
<use xlink:href="#glyph-0-0" x="402" y="25.549805"/>
<use xlink:href="#glyph-0-0" x="406" y="25.549805"/>
<use xlink:href="#glyph-0-0" x="410" y="25.549805"/>
<use xlink:href="#glyph-0-0" x="414" y="25.549805"/>
<use xlink:href="#glyph-0-0" x="418" y="25.549805"/>
<use xlink:href="#glyph-0-0" x="422" y="25.549805"/>
<use xlink:href="#glyph-0-0" x="426" y="25.549805"/>
<use xlink:href="#glyph-0-0" x="430" y="25.549805"/>
<use xlink:href="#glyph-0-0" x="434" y="25.549805"/>
<use xlink:href="#glyph-0-0" x="438" y="25.549805"/>
<use xlink:href="#glyph-0-0" x="442" y="25.549805"/>
<use xlink:href="#glyph-0-0" x="446" y="25.549805"/>
<use xlink:href="#glyph-0-0" x="450" y="25.549805"/>
<use xlink:href="#glyph-0-0" x="454" y="25.549805"/>
<use xlink:href="#glyph-0-0" x="458" y="25.549805"/>
<use xlink:href="#glyph-0-0" x="462" y="25.549805"/>
<use xlink:href="#glyph-0-0" x="466" y="25.549805"/>
<use xlink:href="#glyph-0-0" x="470" y="25.549805"/>
<use xlink:href="#glyph-0-0" x="474" y="25.549805"/>
<use xlink:href="#glyph-0-0" x="478" y="25.549805"/>
<use xlink:href="#glyph-0-0" x="482" y="25.549805"/>
<use xlink:href="#glyph-0-0" x="486" y="25.549805"/>
<use xlink:href="#glyph-0-0" x="490" y="25.549805"/>
<use xlink:href="#glyph-0-0" x="494" y="25.549805"/>
<use xlink:href="#glyph-0-0" x="498" y="25.549805"/>
<use xlink:href="#glyph-0-0" x="502" y="25.549805"/>
<use xlink:href="#glyph-0-0" x="506" y="25.549805"/>
<use xlink:href="#glyph-0-0" x="510" y="25.549805"/>
<use xlink:href="#glyph-0-0" x="514" y="25.549805"/>
<use xlink:href="#glyph-0-0" x="518" y="25.549805"/>
<use xlink:href="#glyph-0-0" x="522" y="25.549805"/>
<use xlink:href="#glyph-0-0" x="526" y="25.549805"/>
<use xlink:href="#glyph-0-0" x="530" y="25.549805"/>
<use xlink:href="#glyph-0-0" x="534" y="25.549805"/>
<use xlink:href="#glyph-0-0" x="538" y="25.549805"/>
<use xlink:href="#glyph-0-0" x="542" y="25.549805"/>
<use xlink:href="#glyph-0-0" x="546" y="25.549805"/>
<use xlink:href="#glyph-0-0" x="550" y="25.549805"/>
<use xlink:href="#glyph-0-0" x="554" y="25.549805"/>
<use xlink:href="#glyph-0-0" x="558" y="25.549805"/>
<use xlink:href="#glyph-0-0" x="562" y="25.549805"/>
<use xlink:href="#glyph-0-0" x="566" y="25.549805"/>
<use xlink:href="#glyph-0-0" x="570" y="25.549805"/>
<use xlink:href="#glyph-0-0" x="574" y="25.549805"/>
<use xlink:href="#glyph-0-0" x="578" y="25.549805"/>
<use xlink:href="#glyph-0-0" x="582" y="25.549805"/>
<use xlink:href="#glyph-0-0" x="586" y="25.549805"/>
<use xlink:href="#glyph-0-0" x="590" y="25.549805"/>
<use xlink:href="#glyph-0-0" x="594" y="25.549805"/>
<use xlink:href="#glyph-0-0" x="598" y="25.549805"/>
<use xlink:href="#glyph-0-0" x="602" y="25.549805"/>
<use xlink:href="#glyph-0-0" x="606" y="25.549805"/>
<use xlink:href="#glyph-0-0" x="610" y="25.549805"/>
<use xlink:href="#glyph-0-0" x="614" y="25.549805"/>
<use xlink:href="#glyph-0-0" x="618" y="25.549805"/>
<use xlink:href="#glyph-0-0" x="622" y="25.549805"/>
<use xlink:href="#glyph-0-0" x="626" y="25.549805"/>
<use xlink:href="#glyph-0-0" x="630" y="25.549805"/>
<use xlink:href="#glyph-0-0" x="634" y="25.549805"/>
<use xlink:href="#glyph-0-0" x="638" y="25.549805"/>
<use xlink:href="#glyph-0-0" x="642" y="25.549805"/>
<use xlink:href="#glyph-0-0" x="646" y="25.549805"/>
<use xlink:href="#glyph-0-0" x="650" y="25.549805"/>
<use xlink:href="#glyph-0-0" x="654" y="25.549805"/>
<use xlink:href="#glyph-0-0" x="658" y="25.549805"/>
<use xlink:href="#glyph-0-0" x="662" y="25.549805"/>
<use xlink:href="#glyph-0-0" x="666" y="25.549805"/>
<use xlink:href="#glyph-0-0" x="670" y="25.549805"/>
<use xlink:href="#glyph-0-0" x="674" y="25.549805"/>
<use xlink:href="#glyph-0-0" x="678" y="25.549805"/>
<use xlink:href="#glyph-0-0" x="682" y="25.549805"/>
<use xlink:href="#glyph-0-0" x="686" y="25.549805"/>
<use xlink:href="#glyph-0-0" x="690" y="25.549805"/>
<use xlink:href="#glyph-0-0" x="694" y="25.549805"/>
<use xlink:href="#glyph-0-0" x="698" y="25.549805"/>
<use xlink:href="#glyph-0-0" x="702" y="25.549805"/>
<use xlink:href="#glyph-0-0" x="706" y="25.549805"/>
<use xlink:href="#glyph-0-0" x="710" y="25.549805"/>
<use xlink:href="#glyph-0-0" x="714" y="25.549805"/>
<use xlink:href="#glyph-0-0" x="718" y="25.549805"/>
<use xlink:href="#glyph-0-0" x="722" y="25.549805"/>
<use xlink:href="#glyph-0-0" x="726" y="25.549805"/>
<use xlink:href="#glyph-0-0" x="730" y="25.549805"/>
<use xlink:href="#glyph-0-0" x="734" y="25.549805"/>
<use xlink:href="#glyph-0-0" x="738" y="25.549805"/>
<use xlink:href="#glyph-0-0" x="742" y="25.549805"/>
<use xlink:href="#glyph-0-0" x="746" y="25.549805"/>
<use xlink:href="#glyph-0-0" x="750" y="25.549805"/>
<use xlink:href="#glyph-0-0" x="754" y="25.549805"/>
<use xlink:href="#glyph-0-0" x="758" y="25.549805"/>
<use xlink:href="#glyph-0-0" x="762" y="25.549805"/>
<use xlink:href="#glyph-0-0" x="766" y="25.549805"/>
<use xlink:href="#glyph-0-0" x="770" y="25.549805"/>
<use xlink:href="#glyph-0-0" x="774" y="25.549805"/>
<use xlink:href="#glyph-0-0" x="778" y="25.549805"/>
<use xlink:href="#glyph-0-0" x="782" y="25.549805"/>
<use xlink:href="#glyph-0-0" x="786" y="25.549805"/>
<use xlink:href="#glyph-0-0" x="790" y="25.549805"/>
<use xlink:href="#glyph-0-0" x="794" y="25.549805"/>
<use xlink:href="#glyph-0-0" x="798" y="25.549805"/>
<use xlink:href="#glyph-0-0" x="802" y="25.549805"/>
<use xlink:href="#glyph-0-0" x="806" y="25.549805"/>
<use xlink:href="#glyph-0-0" x="810" y="25.549805"/>
<use xlink:href="#glyph-0-0" x="814" y="25.549805"/>
<use xlink:href="#glyph-0-0" x="818" y="25.549805"/>
<use xlink:href="#glyph-0-0" x="822" y="25.549805"/>
<use xlink:href="#glyph-0-0" x="826" y="25.549805"/>
<use xlink:href="#glyph-0-0" x="830" y="25.549805"/>
<use xlink:href="#glyph-0-0" x="834" y="25.549805"/>
<use xlink:href="#glyph-0-0" x="838" y="25.549805"/>
<use xlink:href="#glyph-0-0" x="842" y="25.549805"/>
<use xlink:href="#glyph-0-0" x="846" y="25.549805"/>
<use xlink:href="#glyph-0-0" x="850" y="25.549805"/>
<use xlink:href="#glyph-0-0" x="854" y="25.549805"/>
<use xlink:href="#glyph-0-0" x="858" y="25.549805"/>
<use xlink:href="#glyph-0-0" x="862" y="25.549805"/>
<use xlink:href="#glyph-0-0" x="866" y="25.549805"/>
<use xlink:href="#glyph-0-0" x="870" y="25.549805"/>
<use xlink:href="#glyph-0-0" x="874" y="25.549805"/>
<use xlink:href="#glyph-0-0" x="878" y="25.549805"/>
<use xlink:href="#glyph-0-0" x="882" y="25.549805"/>
<use xlink:href="#glyph-0-0" x="886" y="25.549805"/>
<use xlink:href="#glyph-0-0" x="890" y="25.549805"/>
<use xlink:href="#glyph-0-0" x="894" y="25.549805"/>
<use xlink:href="#glyph-0-0" x="898" y="25.549805"/>
<use xlink:href="#glyph-0-0" x="902" y="25.549805"/>
<use xlink:href="#glyph-0-0" x="906" y="25.549805"/>
<use xlink:href="#glyph-0-0" x="910" y="25.549805"/>
<use xlink:href="#glyph-0-0" x="914" y="25.549805"/>
<use xlink:href="#glyph-0-0" x="918" y="25.549805"/>
</g>
</svg>
