<?xml version="1.0" encoding="UTF-8"?>
<svg xmlns="http://www.w3.org/2000/svg" xmlns:xlink="http://www.w3.org/1999/xlink" width="600" height="400" viewBox="0 0 600 400">
<defs>
<g>
<g id="glyph-0-0">
<path d="M 10.40625 0 L 0.460938 0 L 0.460938 -0.347656 C 0.539062 -0.351562 0.652344 -0.363281 0.804688 -0.375 C 0.953125 -0.390625 1.058594 -0.410156 1.117188 -0.433594 C 1.214844 -0.472656 1.289062 -0.53125 1.335938 -0.613281 C 1.382812 -0.691406 1.40625 -0.796875 1.40625 -0.921875 L 1.40625 -5.921875 C 1.40625 -6.027344 1.386719 -6.121094 1.34375 -6.207031 C 1.300781 -6.292969 1.226562 -6.363281 1.125 -6.410156 C 1.035156 -6.453125 0.929688 -6.492188 0.804688 -6.523438 C 0.679688 -6.554688 0.570312 -6.574219 0.476562 -6.582031 L 0.476562 -6.929688 L 3.304688 -6.929688 L 3.304688 -6.582031 C 3.214844 -6.578125 3.105469 -6.5625 2.984375 -6.539062 C 2.859375 -6.511719 2.765625 -6.488281 2.695312 -6.464844 C 2.585938 -6.425781 2.515625 -6.359375 2.484375 -6.269531 C 2.453125 -6.179688 2.4375 -6.078125 2.4375 -5.972656 L 2.4375 -0.90625 C 2.4375 -0.734375 2.492188 -0.605469 2.597656 -0.53125 C 2.703125 -0.453125 2.847656 -0.414062 3.027344 -0.414062 C 3.128906 -0.414062 3.238281 -0.414062 3.355469 -0.40625 C 3.472656 -0.402344 3.621094 -0.398438 3.796875 -0.398438 C 3.914062 -0.398438 4.03125 -0.402344 4.15625 -0.40625 C 4.28125 -0.410156 4.40625 -0.410156 4.523438 -0.414062 C 4.671875 -0.417969 4.777344 -0.445312 4.835938 -0.5 C 4.898438 -0.550781 4.925781 -0.652344 4.925781 -0.804688 L 4.925781 -5.921875 C 4.925781 -6.027344 4.910156 -6.121094 4.875 -6.207031 C 4.835938 -6.292969 4.765625 -6.363281 4.664062 -6.410156 C 4.574219 -6.453125 4.472656 -6.492188 4.351562 -6.523438 C 4.234375 -6.554688 4.128906 -6.574219 4.039062 -6.582031 L 4.039062 -6.929688 L 6.828125 -6.929688 L 6.828125 -6.582031 C 6.734375 -6.578125 6.628906 -6.5625 6.503906 -6.539062 C 6.378906 -6.511719 6.285156 -6.488281 6.214844 -6.464844 C 6.105469 -6.425781 6.035156 -6.359375 6.003906 -6.269531 C 5.972656 -6.179688 5.957031 -6.078125 5.957031 -5.972656 L 5.957031 -0.90625 C 5.957031 -0.734375 6.011719 -0.609375 6.117188 -0.53125 C 6.222656 -0.453125 6.367188 -0.414062 6.546875 -0.414062 C 6.648438 -0.414062 6.753906 -0.414062 6.859375 -0.40625 C 6.96875 -0.402344 7.101562 -0.398438 7.265625 -0.398438 C 7.382812 -0.398438 7.503906 -0.402344 7.625 -0.40625 C 7.75 -0.410156 7.890625 -0.410156 8.042969 -0.414062 C 8.191406 -0.417969 8.296875 -0.445312 8.355469 -0.5 C 8.417969 -0.550781 8.445312 -0.652344 8.445312 -0.804688 L 8.445312 -5.921875 C 8.445312 -6.027344 8.429688 -6.121094 8.394531 -6.207031 C 8.359375 -6.292969 8.289062 -6.363281 8.183594 -6.410156 C 8.09375 -6.453125 7.992188 -6.492188 7.875 -6.523438 C 7.753906 -6.554688 7.648438 -6.574219 7.558594 -6.582031 L 7.558594 -6.929688 L 10.386719 -6.929688 L 10.386719 -6.582031 C 10.292969 -6.578125 10.183594 -6.5625 10.050781 -6.539062 C 9.917969 -6.511719 9.820312 -6.488281 9.757812 -6.464844 C 9.644531 -6.425781 9.570312 -6.359375 9.535156 -6.269531 C 9.496094 -6.179688 9.476562 -6.078125 9.476562 -5.972656 L 9.476562 -0.976562 C 9.476562 -0.863281 9.496094 -0.765625 9.535156 -0.6875 C 9.574219 -0.609375 9.648438 -0.542969 9.761719 -0.484375 C 9.816406 -0.453125 9.917969 -0.425781 10.0625 -0.394531 C 10.210938 -0.367188 10.324219 -0.351562 10.40625 -0.347656 Z "/>
</g>
<g id="glyph-0-1">
<path d="M 4.914062 -0.0859375 C 4.757812 -0.03125 4.625 0.0117188 4.507812 0.046875 C 4.394531 0.0820312 4.261719 0.0976562 4.117188 0.0976562 C 3.863281 0.0976562 3.660156 0.0390625 3.507812 -0.0820312 C 3.355469 -0.199219 3.261719 -0.371094 3.21875 -0.601562 L 3.1875 -0.601562 C 2.976562 -0.367188 2.75 -0.1875 2.507812 -0.0625 C 2.265625 0.0585938 1.972656 0.121094 1.632812 0.121094 C 1.269531 0.121094 0.972656 0.0117188 0.738281 -0.210938 C 0.507812 -0.429688 0.390625 -0.722656 0.390625 -1.078125 C 0.390625 -1.265625 0.417969 -1.429688 0.46875 -1.578125 C 0.519531 -1.722656 0.597656 -1.855469 0.703125 -1.972656 C 0.785156 -2.070312 0.890625 -2.15625 1.023438 -2.234375 C 1.160156 -2.308594 1.285156 -2.371094 1.402344 -2.417969 C 1.546875 -2.472656 1.84375 -2.574219 2.292969 -2.726562 C 2.738281 -2.875 3.042969 -2.992188 3.199219 -3.078125 L 3.199219 -3.558594 C 3.199219 -3.601562 3.1875 -3.683594 3.171875 -3.804688 C 3.152344 -3.925781 3.117188 -4.039062 3.054688 -4.144531 C 2.992188 -4.265625 2.898438 -4.371094 2.78125 -4.460938 C 2.660156 -4.550781 2.492188 -4.59375 2.273438 -4.59375 C 2.125 -4.59375 1.988281 -4.570312 1.859375 -4.519531 C 1.730469 -4.46875 1.640625 -4.414062 1.585938 -4.359375 C 1.585938 -4.296875 1.601562 -4.199219 1.632812 -4.070312 C 1.664062 -3.945312 1.679688 -3.828125 1.679688 -3.71875 C 1.679688 -3.605469 1.628906 -3.503906 1.527344 -3.40625 C 1.421875 -3.3125 1.28125 -3.265625 1.097656 -3.265625 C 0.9375 -3.265625 0.816406 -3.324219 0.738281 -3.441406 C 0.664062 -3.554688 0.625 -3.683594 0.625 -3.828125 C 0.625 -3.976562 0.679688 -4.121094 0.785156 -4.257812 C 0.890625 -4.394531 1.027344 -4.515625 1.195312 -4.625 C 1.34375 -4.714844 1.519531 -4.792969 1.726562 -4.855469 C 1.9375 -4.917969 2.140625 -4.949219 2.339844 -4.953125 C 2.613281 -4.949219 2.851562 -4.933594 3.054688 -4.894531 C 3.257812 -4.859375 3.441406 -4.777344 3.609375 -4.652344 C 3.773438 -4.53125 3.902344 -4.371094 3.988281 -4.164062 C 4.074219 -3.957031 4.117188 -3.691406 4.117188 -3.363281 C 4.117188 -2.898438 4.109375 -2.484375 4.101562 -2.125 C 4.089844 -1.765625 4.085938 -1.375 4.085938 -0.945312 C 4.085938 -0.820312 4.109375 -0.71875 4.152344 -0.644531 C 4.195312 -0.570312 4.265625 -0.507812 4.355469 -0.453125 C 4.40625 -0.425781 4.480469 -0.410156 4.585938 -0.40625 C 4.691406 -0.402344 4.800781 -0.398438 4.914062 -0.398438 L 4.914062 -0.0859375 M 3.207031 -2.664062 C 2.929688 -2.585938 2.6875 -2.503906 2.480469 -2.425781 C 2.273438 -2.347656 2.078125 -2.25 1.898438 -2.132812 C 1.738281 -2.023438 1.609375 -1.890625 1.515625 -1.738281 C 1.417969 -1.585938 1.371094 -1.40625 1.371094 -1.199219 C 1.371094 -0.925781 1.441406 -0.726562 1.585938 -0.601562 C 1.726562 -0.472656 1.90625 -0.410156 2.125 -0.410156 C 2.355469 -0.410156 2.558594 -0.464844 2.734375 -0.578125 C 2.910156 -0.691406 3.058594 -0.824219 3.179688 -0.976562 Z "/>
</g>
<g id="glyph-0-2">
<path d="M 2.789062 0 L 0.359375 0 L 0.359375 -0.320312 C 0.4375 -0.328125 0.511719 -0.335938 0.59375 -0.34375 C 0.671875 -0.347656 0.742188 -0.359375 0.800781 -0.382812 C 0.890625 -0.410156 0.960938 -0.460938 1.003906 -0.535156 C 1.046875 -0.609375 1.070312 -0.703125 1.070312 -0.820312 L 1.070312 -3.945312 C 1.070312 -4.054688 1.046875 -4.144531 1 -4.214844 C 0.957031 -4.289062 0.886719 -4.34375 0.796875 -4.382812 C 0.710938 -4.421875 0.625 -4.449219 0.53125 -4.460938 C 0.441406 -4.476562 0.363281 -4.484375 0.296875 -4.492188 L 0.296875 -4.8125 L 4.3125 -4.8125 L 4.3125 -3.21875 L 4.007812 -3.21875 C 3.984375 -3.289062 3.945312 -3.394531 3.886719 -3.527344 C 3.828125 -3.664062 3.761719 -3.792969 3.6875 -3.914062 C 3.613281 -4.042969 3.53125 -4.15625 3.441406 -4.25 C 3.351562 -4.347656 3.257812 -4.402344 3.160156 -4.414062 C 3.066406 -4.425781 2.957031 -4.429688 2.828125 -4.4375 C 2.695312 -4.441406 2.585938 -4.445312 2.496094 -4.445312 L 1.976562 -4.445312 L 1.976562 -0.867188 C 1.976562 -0.757812 2 -0.667969 2.046875 -0.59375 C 2.089844 -0.523438 2.160156 -0.46875 2.25 -0.429688 C 2.324219 -0.398438 2.40625 -0.371094 2.507812 -0.355469 C 2.605469 -0.339844 2.699219 -0.328125 2.789062 -0.320312 Z "/>
</g>
<g id="glyph-0-3">
<path d="M 5.78125 0 L 3.441406 0 L 3.441406 -0.320312 C 3.515625 -0.328125 3.59375 -0.335938 3.675781 -0.34375 C 3.753906 -0.347656 3.824219 -0.359375 3.882812 -0.382812 C 3.972656 -0.410156 4.042969 -0.460938 4.09375 -0.535156 C 4.140625 -0.609375 4.164062 -0.703125 4.164062 -0.820312 L 4.164062 -3.351562 L 1.949219 -0.953125 L 1.949219 -0.867188 C 1.949219 -0.757812 1.972656 -0.667969 2.015625 -0.59375 C 2.0625 -0.523438 2.128906 -0.46875 2.222656 -0.429688 C 2.292969 -0.398438 2.367188 -0.371094 2.449219 -0.355469 C 2.527344 -0.339844 2.613281 -0.328125 2.699219 -0.320312 L 2.699219 0 L 0.359375 0 L 0.359375 -0.320312 C 0.4375 -0.328125 0.511719 -0.335938 0.59375 -0.34375 C 0.671875 -0.347656 0.742188 -0.359375 0.800781 -0.382812 C 0.890625 -0.410156 0.960938 -0.460938 1.003906 -0.535156 C 1.046875 -0.609375 1.070312 -0.703125 1.070312 -0.820312 L 1.070312 -3.945312 C 1.070312 -4.054688 1.046875 -4.144531 1 -4.214844 C 0.957031 -4.289062 0.886719 -4.34375 0.796875 -4.382812 C 0.710938 -4.421875 0.628906 -4.449219 0.550781 -4.460938 C 0.46875 -4.476562 0.394531 -4.484375 0.328125 -4.492188 L 0.328125 -4.8125 L 2.664062 -4.8125 L 2.664062 -4.492188 C 2.570312 -4.484375 2.488281 -4.476562 2.417969 -4.46875 C 2.347656 -4.457031 2.285156 -4.445312 2.226562 -4.433594 C 2.136719 -4.40625 2.066406 -4.355469 2.023438 -4.28125 C 1.980469 -4.203125 1.957031 -4.109375 1.957031 -3.992188 L 1.957031 -1.503906 L 4.175781 -3.90625 C 4.175781 -4.050781 4.152344 -4.15625 4.105469 -4.222656 C 4.0625 -4.292969 3.992188 -4.34375 3.902344 -4.382812 C 3.816406 -4.421875 3.734375 -4.449219 3.648438 -4.460938 C 3.566406 -4.476562 3.492188 -4.484375 3.421875 -4.492188 L 3.421875 -4.8125 L 5.761719 -4.8125 L 5.761719 -4.492188 C 5.667969 -4.484375 5.585938 -4.476562 5.515625 -4.46875 C 5.445312 -4.457031 5.382812 -4.445312 5.320312 -4.433594 C 5.230469 -4.40625 5.164062 -4.355469 5.121094 -4.28125 C 5.074219 -4.203125 5.054688 -4.109375 5.054688 -3.992188 L 5.054688 -0.867188 C 5.054688 -0.753906 5.074219 -0.664062 5.113281 -0.59375 C 5.152344 -0.523438 5.21875 -0.46875 5.3125 -0.429688 C 5.382812 -0.398438 5.453125 -0.371094 5.535156 -0.355469 C 5.613281 -0.339844 5.695312 -0.328125 5.78125 -0.320312 Z "/>
</g>
</g>
</defs>
<g fill="rgb(100%, 100%, 100%)" fill-opacity="1">
<use xlink:href="#glyph-0-0" x="30" y="29.169922"/>
<use xlink:href="#glyph-0-1" x="41" y="29.169922"/>
<use xlink:href="#glyph-0-2" x="46" y="29.169922"/>
<use xlink:href="#glyph-0-3" x="50" y="29.169922"/>
</g>
<path fill-rule="nonzero" fill="rgb(100%, 100%, 100%)" fill-opacity="1" d="M 29.460938 30.171875 L 56.78125 30.171875 L 56.78125 31.171875 L 29.460938 31.171875 Z "/>
</svg>
