<?xml version="1.0" encoding="UTF-8"?>
<svg xmlns="http://www.w3.org/2000/svg" xmlns:xlink="http://www.w3.org/1999/xlink" width="600" height="400" viewBox="0 0 600 400">
<defs>
<g>
<g id="glyph-0-0">
<path d="M 8.820312 0 L 5.757812 0 L 5.757812 -0.347656 C 5.867188 -0.351562 6.011719 -0.359375 6.183594 -0.382812 C 6.359375 -0.398438 6.476562 -0.429688 6.542969 -0.464844 C 6.644531 -0.527344 6.71875 -0.597656 6.765625 -0.675781 C 6.8125 -0.757812 6.835938 -0.855469 6.835938 -0.976562 L 6.835938 -6.015625 L 6.761719 -6.015625 L 4.398438 -0.113281 L 4.15625 -0.113281 L 1.90625 -6.136719 L 1.839844 -6.136719 L 1.839844 -2 C 1.839844 -1.601562 1.867188 -1.296875 1.917969 -1.089844 C 1.96875 -0.878906 2.042969 -0.730469 2.148438 -0.640625 C 2.21875 -0.570312 2.367188 -0.507812 2.59375 -0.445312 C 2.816406 -0.382812 2.964844 -0.351562 3.03125 -0.347656 L 3.03125 0 L 0.234375 0 L 0.234375 -0.347656 C 0.382812 -0.359375 0.535156 -0.382812 0.695312 -0.421875 C 0.855469 -0.457031 0.980469 -0.507812 1.070312 -0.582031 C 1.183594 -0.671875 1.261719 -0.8125 1.304688 -1 C 1.347656 -1.191406 1.367188 -1.503906 1.367188 -1.949219 L 1.367188 -5.492188 C 1.367188 -5.699219 1.34375 -5.867188 1.292969 -5.996094 C 1.246094 -6.125 1.175781 -6.230469 1.085938 -6.3125 C 0.984375 -6.402344 0.859375 -6.464844 0.710938 -6.507812 C 0.566406 -6.550781 0.421875 -6.574219 0.277344 -6.582031 L 0.277344 -6.929688 L 2.640625 -6.929688 L 4.625 -1.726562 L 6.320312 -6.078125 C 6.382812 -6.238281 6.433594 -6.40625 6.476562 -6.578125 C 6.523438 -6.753906 6.546875 -6.871094 6.550781 -6.929688 L 8.808594 -6.929688 L 8.808594 -6.582031 C 8.71875 -6.578125 8.601562 -6.5625 8.460938 -6.539062 C 8.316406 -6.511719 8.214844 -6.488281 8.148438 -6.464844 C 8.039062 -6.425781 7.964844 -6.359375 7.925781 -6.269531 C 7.886719 -6.179688 7.867188 -6.078125 7.867188 -5.972656 L 7.867188 -0.976562 C 7.867188 -0.863281 7.886719 -0.765625 7.925781 -0.6875 C 7.964844 -0.609375 8.039062 -0.542969 8.148438 -0.484375 C 8.207031 -0.449219 8.3125 -0.421875 8.460938 -0.394531 C 8.613281 -0.367188 8.730469 -0.351562 8.820312 -0.347656 Z "/>
</g>
<g id="glyph-0-1">
<path d="M 5.746094 0 L 3.394531 0 L 3.394531 -0.320312 C 3.46875 -0.328125 3.546875 -0.335938 3.625 -0.34375 C 3.707031 -0.347656 3.773438 -0.359375 3.832031 -0.382812 C 3.925781 -0.410156 3.992188 -0.460938 4.042969 -0.535156 C 4.089844 -0.609375 4.117188 -0.703125 4.117188 -0.820312 L 4.117188 -2.351562 L 1.972656 -2.351562 L 1.972656 -0.867188 C 1.972656 -0.757812 1.996094 -0.667969 2.039062 -0.59375 C 2.085938 -0.523438 2.15625 -0.46875 2.246094 -0.429688 C 2.3125 -0.398438 2.386719 -0.371094 2.46875 -0.355469 C 2.546875 -0.339844 2.628906 -0.328125 2.714844 -0.320312 L 2.714844 0 L 0.359375 0 L 0.359375 -0.320312 C 0.4375 -0.328125 0.511719 -0.335938 0.59375 -0.34375 C 0.671875 -0.347656 0.742188 -0.359375 0.800781 -0.382812 C 0.890625 -0.410156 0.960938 -0.460938 1.003906 -0.535156 C 1.046875 -0.609375 1.070312 -0.703125 1.070312 -0.820312 L 1.070312 -3.945312 C 1.070312 -4.054688 1.046875 -4.144531 1 -4.214844 C 0.957031 -4.289062 0.886719 -4.34375 0.796875 -4.382812 C 0.710938 -4.421875 0.628906 -4.449219 0.550781 -4.460938 C 0.46875 -4.476562 0.394531 -4.484375 0.328125 -4.492188 L 0.328125 -4.8125 L 2.679688 -4.8125 L 2.679688 -4.492188 C 2.585938 -4.484375 2.503906 -4.476562 2.433594 -4.46875 C 2.363281 -4.457031 2.300781 -4.445312 2.242188 -4.433594 C 2.148438 -4.40625 2.082031 -4.355469 2.039062 -4.28125 C 1.996094 -4.203125 1.972656 -4.109375 1.972656 -3.992188 L 1.972656 -2.753906 L 4.117188 -2.753906 L 4.117188 -3.945312 C 4.117188 -4.054688 4.09375 -4.144531 4.046875 -4.214844 C 4.003906 -4.289062 3.933594 -4.34375 3.84375 -4.382812 C 3.757812 -4.421875 3.675781 -4.449219 3.597656 -4.460938 C 3.515625 -4.476562 3.441406 -4.484375 3.375 -4.492188 L 3.375 -4.8125 L 5.726562 -4.8125 L 5.726562 -4.492188 C 5.632812 -4.484375 5.550781 -4.476562 5.480469 -4.46875 C 5.410156 -4.457031 5.347656 -4.445312 5.289062 -4.433594 C 5.195312 -4.40625 5.128906 -4.355469 5.085938 -4.28125 C 5.042969 -4.203125 5.019531 -4.109375 5.019531 -3.992188 L 5.019531 -0.867188 C 5.019531 -0.753906 5.039062 -0.664062 5.078125 -0.59375 C 5.117188 -0.523438 5.183594 -0.46875 5.277344 -0.429688 C 5.347656 -0.398438 5.421875 -0.371094 5.5 -0.355469 C 5.582031 -0.339844 5.664062 -0.328125 5.746094 -0.320312 Z "/>
</g>
<g id="glyph-0-2">
<path d="M 5.046875 -2.457031 C 5.046875 -2.117188 4.996094 -1.785156 4.886719 -1.457031 C 4.78125 -1.128906 4.625 -0.851562 4.429688 -0.625 C 4.203125 -0.363281 3.941406 -0.171875 3.644531 -0.0429688 C 3.347656 0.0820312 3.015625 0.144531 2.648438 0.148438 C 2.34375 0.144531 2.050781 0.0898438 1.773438 -0.0273438 C 1.496094 -0.140625 1.25 -0.3125 1.035156 -0.53125 C 0.824219 -0.75 0.65625 -1.015625 0.53125 -1.332031 C 0.40625 -1.644531 0.34375 -1.996094 0.34375 -2.386719 C 0.34375 -3.140625 0.5625 -3.753906 1 -4.234375 C 1.4375 -4.710938 2.011719 -4.949219 2.722656 -4.953125 C 3.398438 -4.949219 3.953125 -4.722656 4.390625 -4.269531 C 4.828125 -3.816406 5.046875 -3.210938 5.046875 -2.457031 M 4.039062 -2.445312 C 4.039062 -2.691406 4.011719 -2.949219 3.964844 -3.21875 C 3.914062 -3.492188 3.84375 -3.722656 3.746094 -3.910156 C 3.640625 -4.113281 3.503906 -4.273438 3.332031 -4.398438 C 3.164062 -4.519531 2.957031 -4.578125 2.710938 -4.578125 C 2.460938 -4.578125 2.246094 -4.519531 2.070312 -4.394531 C 1.890625 -4.269531 1.746094 -4.101562 1.636719 -3.886719 C 1.53125 -3.6875 1.457031 -3.460938 1.417969 -3.207031 C 1.375 -2.953125 1.351562 -2.707031 1.351562 -2.46875 C 1.351562 -2.15625 1.378906 -1.871094 1.429688 -1.605469 C 1.480469 -1.339844 1.558594 -1.101562 1.671875 -0.894531 C 1.78125 -0.683594 1.921875 -0.523438 2.089844 -0.402344 C 2.257812 -0.285156 2.464844 -0.226562 2.710938 -0.226562 C 3.121094 -0.226562 3.441406 -0.421875 3.679688 -0.816406 C 3.917969 -1.210938 4.039062 -1.753906 4.039062 -2.445312 Z "/>
</g>
<g id="glyph-0-3">
<path d="M 2.789062 0 L 0.359375 0 L 0.359375 -0.320312 C 0.4375 -0.328125 0.511719 -0.335938 0.59375 -0.34375 C 0.671875 -0.347656 0.742188 -0.359375 0.800781 -0.382812 C 0.890625 -0.410156 0.960938 -0.460938 1.003906 -0.535156 C 1.046875 -0.609375 1.070312 -0.703125 1.070312 -0.820312 L 1.070312 -3.945312 C 1.070312 -4.054688 1.046875 -4.144531 1 -4.214844 C 0.957031 -4.289062 0.886719 -4.34375 0.796875 -4.382812 C 0.710938 -4.421875 0.625 -4.449219 0.53125 -4.460938 C 0.441406 -4.476562 0.363281 -4.484375 0.296875 -4.492188 L 0.296875 -4.8125 L 4.3125 -4.8125 L 4.3125 -3.21875 L 4.007812 -3.21875 C 3.984375 -3.289062 3.945312 -3.394531 3.886719 -3.527344 C 3.828125 -3.664062 3.761719 -3.792969 3.6875 -3.914062 C 3.613281 -4.042969 3.53125 -4.15625 3.441406 -4.25 C 3.351562 -4.347656 3.257812 -4.402344 3.160156 -4.414062 C 3.066406 -4.425781 2.957031 -4.429688 2.828125 -4.4375 C 2.695312 -4.441406 2.585938 -4.445312 2.496094 -4.445312 L 1.976562 -4.445312 L 1.976562 -0.867188 C 1.976562 -0.757812 2 -0.667969 2.046875 -0.59375 C 2.089844 -0.523438 2.160156 -0.46875 2.25 -0.429688 C 2.324219 -0.398438 2.40625 -0.371094 2.507812 -0.355469 C 2.605469 -0.339844 2.699219 -0.328125 2.789062 -0.320312 Z "/>
</g>
<g id="glyph-0-4">
<path d="M -0.015625 1.570312 C -0.015625 1.410156 0.03125 1.277344 0.121094 1.175781 C 0.210938 1.070312 0.320312 1.019531 0.453125 1.019531 C 0.558594 1.019531 0.648438 1.039062 0.722656 1.078125 C 0.796875 1.117188 0.863281 1.167969 0.921875 1.230469 C 0.972656 1.277344 1.023438 1.34375 1.078125 1.425781 C 1.132812 1.511719 1.179688 1.582031 1.210938 1.636719 C 1.375 1.546875 1.566406 1.320312 1.792969 0.949219 C 2.019531 0.578125 2.183594 0.253906 2.285156 -0.0273438 C 1.976562 -0.796875 1.695312 -1.488281 1.445312 -2.09375 C 1.195312 -2.703125 0.933594 -3.332031 0.660156 -3.984375 C 0.597656 -4.132812 0.492188 -4.25 0.347656 -4.332031 C 0.199219 -4.417969 0.0546875 -4.46875 -0.09375 -4.492188 L -0.09375 -4.8125 L 2.105469 -4.8125 L 2.105469 -4.472656 C 2.007812 -4.46875 1.890625 -4.449219 1.753906 -4.410156 C 1.617188 -4.375 1.546875 -4.332031 1.546875 -4.28125 C 1.546875 -4.261719 1.554688 -4.230469 1.570312 -4.183594 C 1.585938 -4.140625 1.601562 -4.09375 1.621094 -4.042969 C 1.746094 -3.722656 1.933594 -3.257812 2.1875 -2.652344 C 2.441406 -2.042969 2.636719 -1.558594 2.777344 -1.195312 C 2.921875 -1.542969 3.074219 -1.902344 3.234375 -2.273438 C 3.390625 -2.648438 3.566406 -3.085938 3.761719 -3.59375 C 3.785156 -3.65625 3.820312 -3.742188 3.859375 -3.851562 C 3.902344 -3.960938 3.925781 -4.054688 3.925781 -4.132812 C 3.925781 -4.214844 3.851562 -4.292969 3.703125 -4.367188 C 3.554688 -4.441406 3.414062 -4.484375 3.28125 -4.5 L 3.28125 -4.8125 L 5.070312 -4.8125 L 5.070312 -4.511719 C 4.96875 -4.496094 4.84375 -4.4375 4.683594 -4.34375 C 4.523438 -4.246094 4.40625 -4.109375 4.328125 -3.9375 C 3.9375 -3.039062 3.59375 -2.21875 3.292969 -1.480469 C 2.992188 -0.742188 2.765625 -0.195312 2.609375 0.152344 C 2.402344 0.605469 2.21875 0.960938 2.058594 1.21875 C 1.898438 1.472656 1.738281 1.675781 1.585938 1.820312 C 1.4375 1.957031 1.300781 2.050781 1.179688 2.097656 C 1.058594 2.144531 0.929688 2.167969 0.800781 2.167969 C 0.546875 2.167969 0.347656 2.109375 0.203125 1.988281 C 0.0585938 1.867188 -0.015625 1.726562 -0.015625 1.570312 Z "/>
</g>
<g id="glyph-0-5">
<path d="M 5.46875 0 L 3.117188 0 L 3.117188 -0.320312 C 3.191406 -0.328125 3.265625 -0.335938 3.34375 -0.34375 C 3.421875 -0.347656 3.492188 -0.359375 3.550781 -0.382812 C 3.640625 -0.410156 3.710938 -0.460938 3.757812 -0.535156 C 3.808594 -0.609375 3.832031 -0.703125 3.832031 -0.820312 L 3.832031 -4.414062 L 2.496094 -4.414062 C 2.496094 -3.621094 2.441406 -2.9375 2.328125 -2.363281 C 2.21875 -1.789062 2.074219 -1.324219 1.898438 -0.960938 C 1.726562 -0.605469 1.53125 -0.34375 1.3125 -0.164062 C 1.09375 0.0078125 0.871094 0.0976562 0.644531 0.0976562 C 0.410156 0.0976562 0.234375 0.0351562 0.113281 -0.0859375 C -0.0078125 -0.207031 -0.0703125 -0.351562 -0.0703125 -0.511719 C -0.0703125 -0.628906 -0.03125 -0.742188 0.046875 -0.84375 C 0.121094 -0.949219 0.234375 -1 0.382812 -1 C 0.515625 -1 0.640625 -0.960938 0.75 -0.882812 C 0.863281 -0.804688 0.96875 -0.695312 1.074219 -0.554688 C 1.152344 -0.628906 1.246094 -0.761719 1.351562 -0.953125 C 1.457031 -1.148438 1.554688 -1.386719 1.640625 -1.675781 C 1.738281 -1.984375 1.816406 -2.304688 1.878906 -2.636719 C 1.941406 -2.96875 1.972656 -3.351562 1.972656 -3.78125 C 1.972656 -3.949219 1.953125 -4.074219 1.910156 -4.15625 C 1.867188 -4.238281 1.800781 -4.300781 1.710938 -4.34375 C 1.648438 -4.378906 1.546875 -4.410156 1.40625 -4.4375 C 1.265625 -4.464844 1.152344 -4.484375 1.0625 -4.492188 L 1.0625 -4.8125 L 5.449219 -4.8125 L 5.449219 -4.492188 C 5.355469 -4.484375 5.273438 -4.476562 5.203125 -4.46875 C 5.132812 -4.457031 5.070312 -4.445312 5.007812 -4.433594 C 4.917969 -4.40625 4.851562 -4.355469 4.808594 -4.28125 C 4.761719 -4.203125 4.742188 -4.109375 4.742188 -3.992188 L 4.742188 -0.867188 C 4.742188 -0.753906 4.761719 -0.664062 4.800781 -0.59375 C 4.839844 -0.523438 4.90625 -0.46875 5 -0.429688 C 5.070312 -0.398438 5.140625 -0.371094 5.222656 -0.355469 C 5.300781 -0.339844 5.382812 -0.328125 5.46875 -0.320312 Z "/>
</g>
<g id="glyph-0-6">
<path d="M 3.769531 -1.503906 C 3.769531 -1.777344 3.671875 -2.011719 3.472656 -2.203125 C 3.273438 -2.398438 2.984375 -2.496094 2.601562 -2.496094 C 2.441406 -2.496094 2.3125 -2.488281 2.207031 -2.476562 C 2.101562 -2.464844 2.023438 -2.460938 1.96875 -2.460938 L 1.96875 -0.742188 C 1.96875 -0.605469 2.015625 -0.503906 2.117188 -0.433594 C 2.214844 -0.367188 2.394531 -0.332031 2.65625 -0.332031 C 2.878906 -0.332031 3.0625 -0.367188 3.210938 -0.4375 C 3.359375 -0.511719 3.472656 -0.601562 3.550781 -0.710938 C 3.632812 -0.832031 3.691406 -0.957031 3.722656 -1.089844 C 3.753906 -1.21875 3.769531 -1.359375 3.769531 -1.503906 M 4.757812 -1.480469 C 4.757812 -1.222656 4.699219 -1 4.589844 -0.8125 C 4.480469 -0.625 4.335938 -0.472656 4.160156 -0.351562 C 3.984375 -0.234375 3.789062 -0.144531 3.574219 -0.0859375 C 3.359375 -0.03125 3.132812 0 2.898438 0 L 0.359375 0 L 0.359375 -0.320312 C 0.4375 -0.328125 0.511719 -0.335938 0.59375 -0.34375 C 0.671875 -0.347656 0.742188 -0.359375 0.800781 -0.382812 C 0.890625 -0.410156 0.960938 -0.460938 1.003906 -0.535156 C 1.046875 -0.609375 1.070312 -0.703125 1.070312 -0.820312 L 1.070312 -3.945312 C 1.070312 -4.054688 1.046875 -4.144531 1 -4.214844 C 0.957031 -4.289062 0.886719 -4.34375 0.796875 -4.382812 C 0.710938 -4.421875 0.628906 -4.449219 0.550781 -4.460938 C 0.46875 -4.476562 0.394531 -4.484375 0.328125 -4.492188 L 0.328125 -4.8125 L 2.753906 -4.8125 L 2.753906 -4.492188 C 2.65625 -4.484375 2.5625 -4.476562 2.46875 -4.46875 C 2.375 -4.460938 2.296875 -4.449219 2.234375 -4.433594 C 2.136719 -4.40625 2.066406 -4.347656 2.027344 -4.265625 C 1.988281 -4.1875 1.96875 -4.09375 1.96875 -3.992188 L 1.96875 -2.847656 C 2.097656 -2.851562 2.210938 -2.855469 2.300781 -2.859375 C 2.394531 -2.863281 2.53125 -2.867188 2.703125 -2.867188 C 3.019531 -2.867188 3.296875 -2.839844 3.539062 -2.789062 C 3.777344 -2.738281 3.984375 -2.664062 4.160156 -2.558594 C 4.347656 -2.449219 4.496094 -2.304688 4.601562 -2.132812 C 4.703125 -1.960938 4.757812 -1.742188 4.757812 -1.480469 Z "/>
</g>
<g id="glyph-0-7">
<path d="M 5.78125 0 L 3.441406 0 L 3.441406 -0.320312 C 3.515625 -0.328125 3.59375 -0.335938 3.675781 -0.34375 C 3.753906 -0.347656 3.824219 -0.359375 3.882812 -0.382812 C 3.972656 -0.410156 4.042969 -0.460938 4.09375 -0.535156 C 4.140625 -0.609375 4.164062 -0.703125 4.164062 -0.820312 L 4.164062 -3.351562 L 1.949219 -0.953125 L 1.949219 -0.867188 C 1.949219 -0.757812 1.972656 -0.667969 2.015625 -0.59375 C 2.0625 -0.523438 2.128906 -0.46875 2.222656 -0.429688 C 2.292969 -0.398438 2.367188 -0.371094 2.449219 -0.355469 C 2.527344 -0.339844 2.613281 -0.328125 2.699219 -0.320312 L 2.699219 0 L 0.359375 0 L 0.359375 -0.320312 C 0.4375 -0.328125 0.511719 -0.335938 0.59375 -0.34375 C 0.671875 -0.347656 0.742188 -0.359375 0.800781 -0.382812 C 0.890625 -0.410156 0.960938 -0.460938 1.003906 -0.535156 C 1.046875 -0.609375 1.070312 -0.703125 1.070312 -0.820312 L 1.070312 -3.945312 C 1.070312 -4.054688 1.046875 -4.144531 1 -4.214844 C 0.957031 -4.289062 0.886719 -4.34375 0.796875 -4.382812 C 0.710938 -4.421875 0.628906 -4.449219 0.550781 -4.460938 C 0.46875 -4.476562 0.394531 -4.484375 0.328125 -4.492188 L 0.328125 -4.8125 L 2.664062 -4.8125 L 2.664062 -4.492188 C 2.570312 -4.484375 2.488281 -4.476562 2.417969 -4.46875 C 2.347656 -4.457031 2.285156 -4.445312 2.226562 -4.433594 C 2.136719 -4.40625 2.066406 -4.355469 2.023438 -4.28125 C 1.980469 -4.203125 1.957031 -4.109375 1.957031 -3.992188 L 1.957031 -1.503906 L 4.175781 -3.90625 C 4.175781 -4.050781 4.152344 -4.15625 4.105469 -4.222656 C 4.0625 -4.292969 3.992188 -4.34375 3.902344 -4.382812 C 3.816406 -4.421875 3.734375 -4.449219 3.648438 -4.460938 C 3.566406 -4.476562 3.492188 -4.484375 3.421875 -4.492188 L 3.421875 -4.8125 L 5.761719 -4.8125 L 5.761719 -4.492188 C 5.667969 -4.484375 5.585938 -4.476562 5.515625 -4.46875 C 5.445312 -4.457031 5.382812 -4.445312 5.320312 -4.433594 C 5.230469 -4.40625 5.164062 -4.355469 5.121094 -4.28125 C 5.074219 -4.203125 5.054688 -4.109375 5.054688 -3.992188 L 5.054688 -0.867188 C 5.054688 -0.753906 5.074219 -0.664062 5.113281 -0.59375 C 5.152344 -0.523438 5.21875 -0.46875 5.3125 -0.429688 C 5.382812 -0.398438 5.453125 -0.371094 5.535156 -0.355469 C 5.613281 -0.339844 5.695312 -0.328125 5.78125 -0.320312 Z "/>
</g>
<g id="glyph-0-8">
<path d="M 5.460938 0 L 3.800781 0 C 3.71875 -0.265625 3.644531 -0.496094 3.582031 -0.683594 C 3.515625 -0.875 3.417969 -1.09375 3.289062 -1.34375 C 3.136719 -1.648438 2.96875 -1.871094 2.785156 -2.007812 C 2.601562 -2.144531 2.367188 -2.210938 2.078125 -2.210938 L 1.96875 -2.210938 L 1.96875 -0.867188 C 1.96875 -0.757812 1.992188 -0.667969 2.035156 -0.59375 C 2.082031 -0.523438 2.148438 -0.46875 2.242188 -0.429688 C 2.308594 -0.398438 2.382812 -0.371094 2.464844 -0.355469 C 2.542969 -0.339844 2.625 -0.328125 2.710938 -0.320312 L 2.710938 0 L 0.359375 0 L 0.359375 -0.320312 C 0.4375 -0.328125 0.511719 -0.335938 0.59375 -0.34375 C 0.671875 -0.347656 0.742188 -0.359375 0.800781 -0.382812 C 0.890625 -0.410156 0.960938 -0.460938 1.003906 -0.535156 C 1.046875 -0.609375 1.070312 -0.703125 1.070312 -0.820312 L 1.070312 -3.945312 C 1.070312 -4.054688 1.046875 -4.144531 1 -4.214844 C 0.957031 -4.289062 0.886719 -4.34375 0.796875 -4.382812 C 0.710938 -4.421875 0.628906 -4.449219 0.550781 -4.460938 C 0.46875 -4.476562 0.394531 -4.484375 0.328125 -4.492188 L 0.328125 -4.8125 L 2.675781 -4.8125 L 2.675781 -4.492188 C 2.582031 -4.484375 2.5 -4.476562 2.429688 -4.46875 C 2.359375 -4.457031 2.296875 -4.445312 2.234375 -4.433594 C 2.144531 -4.40625 2.078125 -4.355469 2.035156 -4.28125 C 1.988281 -4.203125 1.96875 -4.109375 1.96875 -3.992188 L 1.96875 -2.582031 L 2.277344 -2.582031 C 2.382812 -2.582031 2.492188 -2.605469 2.597656 -2.648438 C 2.707031 -2.6875 2.796875 -2.746094 2.867188 -2.820312 C 2.960938 -2.921875 3.042969 -3.046875 3.113281 -3.207031 C 3.183594 -3.367188 3.246094 -3.515625 3.292969 -3.65625 C 3.347656 -3.804688 3.40625 -3.953125 3.472656 -4.109375 C 3.539062 -4.265625 3.605469 -4.386719 3.675781 -4.472656 C 3.792969 -4.617188 3.921875 -4.722656 4.0625 -4.78125 C 4.199219 -4.84375 4.351562 -4.875 4.519531 -4.875 C 4.769531 -4.875 4.953125 -4.820312 5.070312 -4.710938 C 5.1875 -4.605469 5.242188 -4.46875 5.242188 -4.304688 C 5.242188 -4.167969 5.199219 -4.046875 5.105469 -3.945312 C 5.011719 -3.84375 4.890625 -3.792969 4.734375 -3.792969 C 4.589844 -3.792969 4.476562 -3.832031 4.390625 -3.90625 C 4.308594 -3.980469 4.195312 -4.105469 4.046875 -4.28125 C 3.984375 -4.226562 3.925781 -4.109375 3.871094 -3.933594 C 3.8125 -3.753906 3.757812 -3.601562 3.707031 -3.46875 C 3.609375 -3.203125 3.507812 -3 3.40625 -2.855469 C 3.304688 -2.710938 3.183594 -2.597656 3.046875 -2.507812 L 3.046875 -2.445312 C 3.34375 -2.386719 3.578125 -2.277344 3.753906 -2.121094 C 3.925781 -1.964844 4.074219 -1.765625 4.195312 -1.53125 C 4.253906 -1.417969 4.320312 -1.277344 4.390625 -1.113281 C 4.464844 -0.949219 4.511719 -0.839844 4.535156 -0.789062 C 4.601562 -0.644531 4.679688 -0.542969 4.769531 -0.488281 C 4.863281 -0.4375 4.945312 -0.402344 5.023438 -0.390625 C 5.097656 -0.375 5.175781 -0.359375 5.25 -0.347656 C 5.328125 -0.335938 5.398438 -0.328125 5.460938 -0.320312 Z "/>
</g>
</g>
</defs>
<g fill="rgb(100%, 100%, 100%)" fill-opacity="1">
<use xlink:href="#glyph-0-0" x="30" y="29.169922"/>
<use xlink:href="#glyph-0-1" x="39" y="29.169922"/>
<use xlink:href="#glyph-0-2" x="45" y="29.169922"/>
<use xlink:href="#glyph-0-3" x="50" y="29.169922"/>
<use xlink:href="#glyph-0-2" x="54" y="29.169922"/>
<use xlink:href="#glyph-0-4" x="59" y="29.169922"/>
<use xlink:href="#glyph-0-3" x="64" y="29.169922"/>
<use xlink:href="#glyph-0-2" x="68" y="29.169922"/>
<use xlink:href="#glyph-0-5" x="73" y="29.169922"/>
<use xlink:href="#glyph-0-6" x="79" y="29.169922"/>
<use xlink:href="#glyph-0-1" x="84" y="29.169922"/>
<use xlink:href="#glyph-0-7" x="90" y="29.169922"/>
<use xlink:href="#glyph-0-8" x="96" y="29.169922"/>
</g>
<path fill-rule="nonzero" fill="rgb(100%, 100%, 100%)" fill-opacity="1" d="M 29.234375 30.171875 L 102.460938 30.171875 L 102.460938 31.171875 L 29.234375 31.171875 Z "/>
</svg>
